%TF.GenerationSoftware,KiCad,Pcbnew,8.0.4+dfsg-1*%
%TF.CreationDate,2025-01-09T13:19:55-05:00*%
%TF.ProjectId,tag,7461672e-6b69-4636-9164-5f7063625858,1*%
%TF.SameCoordinates,Original*%
%TF.FileFunction,Drillmap*%
%TF.FilePolarity,Positive*%
%FSLAX45Y45*%
G04 Gerber Fmt 4.5, Leading zero omitted, Abs format (unit mm)*
G04 Created by KiCad (PCBNEW 8.0.4+dfsg-1) date 2025-01-09 13:19:55*
%MOMM*%
%LPD*%
G01*
G04 APERTURE LIST*
%ADD10C,0.254000*%
%ADD11C,0.250000*%
%ADD12C,0.677000*%
%ADD13C,0.200000*%
G04 APERTURE END LIST*
D10*
X8388000Y-2865000D02*
G75*
G02*
X8388000Y-2801000I0J32000D01*
G01*
D11*
X5709000Y-2622000D02*
X8388000Y-2619000D01*
D10*
X8383000Y-3899000D02*
G75*
G02*
X8383000Y-3835000I0J32000D01*
G01*
X8388000Y-2801000D02*
X8388000Y-2619000D01*
X8383000Y-3835000D02*
X8388000Y-2865000D01*
D12*
X8316850Y-3386000D02*
G75*
G02*
X8249150Y-3386000I-33850J0D01*
G01*
X8249150Y-3386000D02*
G75*
G02*
X8316850Y-3386000I33850J0D01*
G01*
D10*
X8383000Y-3899000D02*
X8382750Y-4750750D01*
X8382750Y-4750750D02*
X5710500Y-4750750D01*
X5710500Y-4750750D02*
X5709000Y-2622000D01*
D13*
X5957077Y-5074934D02*
X5957077Y-4874934D01*
X5957077Y-4874934D02*
X6004696Y-4874934D01*
X6004696Y-4874934D02*
X6033267Y-4884458D01*
X6033267Y-4884458D02*
X6052315Y-4903505D01*
X6052315Y-4903505D02*
X6061839Y-4922553D01*
X6061839Y-4922553D02*
X6071362Y-4960648D01*
X6071362Y-4960648D02*
X6071362Y-4989220D01*
X6071362Y-4989220D02*
X6061839Y-5027315D01*
X6061839Y-5027315D02*
X6052315Y-5046362D01*
X6052315Y-5046362D02*
X6033267Y-5065410D01*
X6033267Y-5065410D02*
X6004696Y-5074934D01*
X6004696Y-5074934D02*
X5957077Y-5074934D01*
X6157077Y-5074934D02*
X6157077Y-4941600D01*
X6157077Y-4979696D02*
X6166601Y-4960648D01*
X6166601Y-4960648D02*
X6176124Y-4951124D01*
X6176124Y-4951124D02*
X6195172Y-4941600D01*
X6195172Y-4941600D02*
X6214220Y-4941600D01*
X6280886Y-5074934D02*
X6280886Y-4941600D01*
X6280886Y-4874934D02*
X6271362Y-4884458D01*
X6271362Y-4884458D02*
X6280886Y-4893981D01*
X6280886Y-4893981D02*
X6290410Y-4884458D01*
X6290410Y-4884458D02*
X6280886Y-4874934D01*
X6280886Y-4874934D02*
X6280886Y-4893981D01*
X6404696Y-5074934D02*
X6385648Y-5065410D01*
X6385648Y-5065410D02*
X6376124Y-5046362D01*
X6376124Y-5046362D02*
X6376124Y-4874934D01*
X6509458Y-5074934D02*
X6490410Y-5065410D01*
X6490410Y-5065410D02*
X6480886Y-5046362D01*
X6480886Y-5046362D02*
X6480886Y-4874934D01*
X6738029Y-5074934D02*
X6738029Y-4874934D01*
X6738029Y-4874934D02*
X6804696Y-5017791D01*
X6804696Y-5017791D02*
X6871362Y-4874934D01*
X6871362Y-4874934D02*
X6871362Y-5074934D01*
X7052315Y-5074934D02*
X7052315Y-4970172D01*
X7052315Y-4970172D02*
X7042791Y-4951124D01*
X7042791Y-4951124D02*
X7023743Y-4941600D01*
X7023743Y-4941600D02*
X6985648Y-4941600D01*
X6985648Y-4941600D02*
X6966601Y-4951124D01*
X7052315Y-5065410D02*
X7033267Y-5074934D01*
X7033267Y-5074934D02*
X6985648Y-5074934D01*
X6985648Y-5074934D02*
X6966601Y-5065410D01*
X6966601Y-5065410D02*
X6957077Y-5046362D01*
X6957077Y-5046362D02*
X6957077Y-5027315D01*
X6957077Y-5027315D02*
X6966601Y-5008267D01*
X6966601Y-5008267D02*
X6985648Y-4998743D01*
X6985648Y-4998743D02*
X7033267Y-4998743D01*
X7033267Y-4998743D02*
X7052315Y-4989220D01*
X7147553Y-4941600D02*
X7147553Y-5141600D01*
X7147553Y-4951124D02*
X7166601Y-4941600D01*
X7166601Y-4941600D02*
X7204696Y-4941600D01*
X7204696Y-4941600D02*
X7223743Y-4951124D01*
X7223743Y-4951124D02*
X7233267Y-4960648D01*
X7233267Y-4960648D02*
X7242791Y-4979696D01*
X7242791Y-4979696D02*
X7242791Y-5036839D01*
X7242791Y-5036839D02*
X7233267Y-5055886D01*
X7233267Y-5055886D02*
X7223743Y-5065410D01*
X7223743Y-5065410D02*
X7204696Y-5074934D01*
X7204696Y-5074934D02*
X7166601Y-5074934D01*
X7166601Y-5074934D02*
X7147553Y-5065410D01*
X7328505Y-5055886D02*
X7338029Y-5065410D01*
X7338029Y-5065410D02*
X7328505Y-5074934D01*
X7328505Y-5074934D02*
X7318982Y-5065410D01*
X7318982Y-5065410D02*
X7328505Y-5055886D01*
X7328505Y-5055886D02*
X7328505Y-5074934D01*
X7328505Y-4951124D02*
X7338029Y-4960648D01*
X7338029Y-4960648D02*
X7328505Y-4970172D01*
X7328505Y-4970172D02*
X7318982Y-4960648D01*
X7318982Y-4960648D02*
X7328505Y-4951124D01*
X7328505Y-4951124D02*
X7328505Y-4970172D01*
M02*
