G04 #@! TF.GenerationSoftware,KiCad,Pcbnew,8.0.4+dfsg-1*
G04 #@! TF.CreationDate,2025-01-09T13:18:19-05:00*
G04 #@! TF.ProjectId,tag,7461672e-6b69-4636-9164-5f7063625858,1*
G04 #@! TF.SameCoordinates,Original*
G04 #@! TF.FileFunction,Legend,Bot*
G04 #@! TF.FilePolarity,Positive*
%FSLAX46Y46*%
G04 Gerber Fmt 4.6, Leading zero omitted, Abs format (unit mm)*
G04 Created by KiCad (PCBNEW 8.0.4+dfsg-1) date 2025-01-09 13:18:19*
%MOMM*%
%LPD*%
G01*
G04 APERTURE LIST*
%ADD10C,0.100000*%
%ADD11C,1.064000*%
%ADD12R,2.540000X0.750000*%
%ADD13R,0.750000X2.540000*%
G04 APERTURE END LIST*
D10*
X61305000Y-43847500D02*
X61305000Y-44247500D01*
X61305000Y-44247500D02*
X80405000Y-44247500D01*
X80405000Y-43847500D02*
X80405000Y-44247500D01*
%LPC*%
D11*
X83840000Y-37670000D03*
X83840000Y-36400000D03*
X83840000Y-35130000D03*
X83840000Y-32590000D03*
X83840000Y-31320000D03*
X83840000Y-30050000D03*
D12*
X80245000Y-27097500D03*
X80245000Y-28097500D03*
X80245000Y-29097500D03*
X80245000Y-30097500D03*
X80245000Y-31097500D03*
X80245000Y-32097500D03*
X80245000Y-33097500D03*
X80245000Y-34097500D03*
X80245000Y-35097500D03*
X80245000Y-36097500D03*
X80245000Y-37097500D03*
X80245000Y-38097500D03*
X80245000Y-39097500D03*
X80245000Y-40097500D03*
X80245000Y-41097500D03*
X80245000Y-42097500D03*
X80245000Y-43097500D03*
D13*
X77405000Y-44087500D03*
X76405000Y-44087500D03*
X75405000Y-44087500D03*
X74405000Y-44087500D03*
X73405000Y-44087500D03*
X72405000Y-44087500D03*
X71405000Y-44087500D03*
X70405000Y-44087500D03*
X69405000Y-44087500D03*
X68405000Y-44087500D03*
X67405000Y-44087500D03*
X66405000Y-44087500D03*
X65405000Y-44087500D03*
X64405000Y-44087500D03*
D12*
X61435000Y-43097500D03*
X61435000Y-42097500D03*
X61435000Y-41097500D03*
X61435000Y-40097500D03*
X61435000Y-39097500D03*
X61435000Y-38097500D03*
X61435000Y-37097500D03*
X61435000Y-36097500D03*
X61435000Y-35097500D03*
X61435000Y-34097500D03*
X61435000Y-33097500D03*
X61435000Y-32097500D03*
X61435000Y-31097500D03*
X61435000Y-30097500D03*
X61435000Y-29097500D03*
X61435000Y-28097500D03*
X61435000Y-27097500D03*
%LPD*%
M02*
