M48
; DRILL file {KiCad 8.0.4+dfsg-1} date 2025-01-09T13:19:10-0500
; FORMAT={-:-/ absolute / metric / decimal}
; #@! TF.CreationDate,2025-01-09T13:19:10-05:00
; #@! TF.GenerationSoftware,Kicad,Pcbnew,8.0.4+dfsg-1
; #@! TF.FileFunction,Plated,1,2,PTH
FMAT,2
METRIC
; #@! TA.AperFunction,Plated,PTH,ViaDrill
T1C0.300
; #@! TA.AperFunction,Plated,PTH,ComponentDrill
T2C0.810
%
G90
G05
T1
X57.92Y-37.37
X58.68Y-45.9
X58.84Y-28.47
X59.42Y-33.77
X63.1Y-37.17
X63.268Y-28.431
X63.33Y-41.24
X63.62Y-29.15
X64.58Y-37.14
X64.71Y-30.04
X64.91Y-32.84
X65.75Y-33.56
X66.08Y-37.86
X66.99Y-28.83
X66.99Y-29.66
X67.33Y-41.45
X67.53Y-28.1
X67.65Y-30.65
X67.879Y-32.39
X68.14Y-33.23
X69.37Y-30.37
X69.49Y-33.66
X69.995Y-39.26
X70.46Y-27.59
X70.48Y-28.46
X70.57Y-29.46
X70.65Y-30.55
X71.15Y-34.44
X71.44Y-36.37
X73.32Y-34.04
X73.5Y-36.11
X75.814Y-42.294
X76.2Y-38.045
X77.01Y-35.05
X78.01Y-36.38
X82.15Y-29.77
X82.3Y-43.39
X82.32Y-32.23
X82.72Y-27.17
T2
X83.84Y-30.05
X83.84Y-31.32
X83.84Y-32.59
X83.84Y-35.13
X83.84Y-36.4
X83.84Y-37.67
M30
