M48
; DRILL file {KiCad 8.0.4+dfsg-1} date 2025-01-09T10:04:38-0500
; FORMAT={-:-/ absolute / inch / decimal}
; #@! TF.CreationDate,2025-01-09T10:04:38-05:00
; #@! TF.GenerationSoftware,Kicad,Pcbnew,8.0.4+dfsg-1
; #@! TF.FileFunction,Plated,1,2,PTH
FMAT,2
INCH
; #@! TA.AperFunction,Plated,PTH,ViaDrill
T1C0.0118
; #@! TA.AperFunction,Plated,PTH,ComponentDrill
T2C0.0319
%
G90
G05
T1
X2.2803Y-1.4713
X2.3102Y-1.8071
X2.3165Y-1.1209
X2.3394Y-1.3295
X2.4843Y-1.4634
X2.4909Y-1.1193
X2.4933Y-1.6236
X2.5047Y-1.1476
X2.5425Y-1.4622
X2.5476Y-1.1827
X2.5555Y-1.2929
X2.5886Y-1.3213
X2.6016Y-1.4906
X2.6374Y-1.135
X2.6374Y-1.1677
X2.6508Y-1.6319
X2.6587Y-1.1063
X2.6634Y-1.2067
X2.6724Y-1.2752
X2.6827Y-1.3083
X2.7311Y-1.1957
X2.7358Y-1.3252
X2.7557Y-1.5457
X2.774Y-1.0862
X2.7748Y-1.1205
X2.7783Y-1.1598
X2.7815Y-1.2028
X2.8012Y-1.3559
X2.8126Y-1.4319
X2.8866Y-1.3402
X2.8937Y-1.4217
X2.9848Y-1.6651
X3.0Y-1.4978
X3.0319Y-1.3799
X3.0713Y-1.4323
X3.2343Y-1.172
X3.2402Y-1.7083
X3.2409Y-1.2689
X3.2567Y-1.0697
T2
X3.3008Y-1.1831
X3.3008Y-1.2331
X3.3008Y-1.2831
X3.3008Y-1.3831
X3.3008Y-1.4331
X3.3008Y-1.4831
M30
