%TF.GenerationSoftware,KiCad,Pcbnew,8.0.4+dfsg-1*%
%TF.CreationDate,2025-01-09T10:04:40-05:00*%
%TF.ProjectId,tag,7461672e-6b69-4636-9164-5f7063625858,1*%
%TF.SameCoordinates,Original*%
%TF.FileFunction,Drillmap*%
%TF.FilePolarity,Positive*%
%FSLAX45Y45*%
G04 Gerber Fmt 4.5, Leading zero omitted, Abs format (unit mm)*
G04 Created by KiCad (PCBNEW 8.0.4+dfsg-1) date 2025-01-09 10:04:40*
%MOMM*%
%LPD*%
G01*
G04 APERTURE LIST*
%ADD10C,0.254000*%
%ADD11C,0.250000*%
%ADD12C,0.677000*%
%ADD13C,0.200000*%
%ADD14C,0.100000*%
G04 APERTURE END LIST*
D10*
X8388000Y-2865000D02*
G75*
G02*
X8388000Y-2801000I0J32000D01*
G01*
D11*
X5709000Y-2622000D02*
X8388000Y-2619000D01*
D10*
X8383000Y-3899000D02*
G75*
G02*
X8383000Y-3835000I0J32000D01*
G01*
X8388000Y-2801000D02*
X8388000Y-2619000D01*
X8383000Y-3835000D02*
X8388000Y-2865000D01*
D12*
X8316850Y-3386000D02*
G75*
G02*
X8249150Y-3386000I-33850J0D01*
G01*
X8249150Y-3386000D02*
G75*
G02*
X8316850Y-3386000I33850J0D01*
G01*
D10*
X8383000Y-3899000D02*
X8382750Y-4750750D01*
X8382750Y-4750750D02*
X5710500Y-4750750D01*
X5710500Y-4750750D02*
X5709000Y-2622000D01*
D13*
D14*
X5777000Y-3722000D02*
X5807000Y-3752000D01*
X5807000Y-3722000D02*
X5777000Y-3752000D01*
X5853000Y-4575000D02*
X5883000Y-4605000D01*
X5883000Y-4575000D02*
X5853000Y-4605000D01*
X5869000Y-2832000D02*
X5899000Y-2862000D01*
X5899000Y-2832000D02*
X5869000Y-2862000D01*
X5927000Y-3362000D02*
X5957000Y-3392000D01*
X5957000Y-3362000D02*
X5927000Y-3392000D01*
X6295000Y-3702000D02*
X6325000Y-3732000D01*
X6325000Y-3702000D02*
X6295000Y-3732000D01*
X6311836Y-2828142D02*
X6341836Y-2858142D01*
X6341836Y-2828142D02*
X6311836Y-2858142D01*
X6318000Y-4109000D02*
X6348000Y-4139000D01*
X6348000Y-4109000D02*
X6318000Y-4139000D01*
X6347000Y-2900000D02*
X6377000Y-2930000D01*
X6377000Y-2900000D02*
X6347000Y-2930000D01*
X6443000Y-3699000D02*
X6473000Y-3729000D01*
X6473000Y-3699000D02*
X6443000Y-3729000D01*
X6456000Y-2989000D02*
X6486000Y-3019000D01*
X6486000Y-2989000D02*
X6456000Y-3019000D01*
X6476000Y-3269000D02*
X6506000Y-3299000D01*
X6506000Y-3269000D02*
X6476000Y-3299000D01*
X6560000Y-3341000D02*
X6590000Y-3371000D01*
X6590000Y-3341000D02*
X6560000Y-3371000D01*
X6593000Y-3771000D02*
X6623000Y-3801000D01*
X6623000Y-3771000D02*
X6593000Y-3801000D01*
X6684000Y-2868000D02*
X6714000Y-2898000D01*
X6714000Y-2868000D02*
X6684000Y-2898000D01*
X6684000Y-2951000D02*
X6714000Y-2981000D01*
X6714000Y-2951000D02*
X6684000Y-2981000D01*
X6718000Y-4130000D02*
X6748000Y-4160000D01*
X6748000Y-4130000D02*
X6718000Y-4160000D01*
X6738000Y-2795000D02*
X6768000Y-2825000D01*
X6768000Y-2795000D02*
X6738000Y-2825000D01*
X6750000Y-3050000D02*
X6780000Y-3080000D01*
X6780000Y-3050000D02*
X6750000Y-3080000D01*
X6772853Y-3224000D02*
X6802853Y-3254000D01*
X6802853Y-3224000D02*
X6772853Y-3254000D01*
X6799000Y-3308000D02*
X6829000Y-3338000D01*
X6829000Y-3308000D02*
X6799000Y-3338000D01*
X6922000Y-3022000D02*
X6952000Y-3052000D01*
X6952000Y-3022000D02*
X6922000Y-3052000D01*
X6934000Y-3351000D02*
X6964000Y-3381000D01*
X6964000Y-3351000D02*
X6934000Y-3381000D01*
X6984500Y-3911000D02*
X7014500Y-3941000D01*
X7014500Y-3911000D02*
X6984500Y-3941000D01*
X7031000Y-2744000D02*
X7061000Y-2774000D01*
X7061000Y-2744000D02*
X7031000Y-2774000D01*
X7033000Y-2831000D02*
X7063000Y-2861000D01*
X7063000Y-2831000D02*
X7033000Y-2861000D01*
X7042000Y-2931000D02*
X7072000Y-2961000D01*
X7072000Y-2931000D02*
X7042000Y-2961000D01*
X7050000Y-3040000D02*
X7080000Y-3070000D01*
X7080000Y-3040000D02*
X7050000Y-3070000D01*
X7100000Y-3429000D02*
X7130000Y-3459000D01*
X7130000Y-3429000D02*
X7100000Y-3459000D01*
X7129000Y-3622000D02*
X7159000Y-3652000D01*
X7159000Y-3622000D02*
X7129000Y-3652000D01*
X7317000Y-3389000D02*
X7347000Y-3419000D01*
X7347000Y-3389000D02*
X7317000Y-3419000D01*
X7335000Y-3596000D02*
X7365000Y-3626000D01*
X7365000Y-3596000D02*
X7335000Y-3626000D01*
X7566444Y-4214373D02*
X7596444Y-4244373D01*
X7596444Y-4214373D02*
X7566444Y-4244373D01*
X7605000Y-3789500D02*
X7635000Y-3819500D01*
X7635000Y-3789500D02*
X7605000Y-3819500D01*
X7686000Y-3490000D02*
X7716000Y-3520000D01*
X7716000Y-3490000D02*
X7686000Y-3520000D01*
X7786000Y-3623000D02*
X7816000Y-3653000D01*
X7816000Y-3623000D02*
X7786000Y-3653000D01*
X8200000Y-2962000D02*
X8230000Y-2992000D01*
X8230000Y-2962000D02*
X8200000Y-2992000D01*
X8215000Y-4324000D02*
X8245000Y-4354000D01*
X8245000Y-4324000D02*
X8215000Y-4354000D01*
X8217000Y-3208000D02*
X8247000Y-3238000D01*
X8247000Y-3208000D02*
X8217000Y-3238000D01*
X8257000Y-2702000D02*
X8287000Y-2732000D01*
X8287000Y-2702000D02*
X8257000Y-2732000D01*
X8424500Y-3005000D02*
G75*
G02*
X8343500Y-3005000I-40500J0D01*
G01*
X8343500Y-3005000D02*
G75*
G02*
X8424500Y-3005000I40500J0D01*
G01*
X8424500Y-3132000D02*
G75*
G02*
X8343500Y-3132000I-40500J0D01*
G01*
X8343500Y-3132000D02*
G75*
G02*
X8424500Y-3132000I40500J0D01*
G01*
X8424500Y-3259000D02*
G75*
G02*
X8343500Y-3259000I-40500J0D01*
G01*
X8343500Y-3259000D02*
G75*
G02*
X8424500Y-3259000I40500J0D01*
G01*
X8424500Y-3513000D02*
G75*
G02*
X8343500Y-3513000I-40500J0D01*
G01*
X8343500Y-3513000D02*
G75*
G02*
X8424500Y-3513000I40500J0D01*
G01*
X8424500Y-3640000D02*
G75*
G02*
X8343500Y-3640000I-40500J0D01*
G01*
X8343500Y-3640000D02*
G75*
G02*
X8424500Y-3640000I40500J0D01*
G01*
X8424500Y-3767000D02*
G75*
G02*
X8343500Y-3767000I-40500J0D01*
G01*
X8343500Y-3767000D02*
G75*
G02*
X8424500Y-3767000I40500J0D01*
G01*
D13*
X5957077Y-5074934D02*
X5957077Y-4874934D01*
X5957077Y-4874934D02*
X6004696Y-4874934D01*
X6004696Y-4874934D02*
X6033267Y-4884458D01*
X6033267Y-4884458D02*
X6052315Y-4903505D01*
X6052315Y-4903505D02*
X6061839Y-4922553D01*
X6061839Y-4922553D02*
X6071362Y-4960648D01*
X6071362Y-4960648D02*
X6071362Y-4989220D01*
X6071362Y-4989220D02*
X6061839Y-5027315D01*
X6061839Y-5027315D02*
X6052315Y-5046362D01*
X6052315Y-5046362D02*
X6033267Y-5065410D01*
X6033267Y-5065410D02*
X6004696Y-5074934D01*
X6004696Y-5074934D02*
X5957077Y-5074934D01*
X6157077Y-5074934D02*
X6157077Y-4941600D01*
X6157077Y-4979696D02*
X6166601Y-4960648D01*
X6166601Y-4960648D02*
X6176124Y-4951124D01*
X6176124Y-4951124D02*
X6195172Y-4941600D01*
X6195172Y-4941600D02*
X6214220Y-4941600D01*
X6280886Y-5074934D02*
X6280886Y-4941600D01*
X6280886Y-4874934D02*
X6271362Y-4884458D01*
X6271362Y-4884458D02*
X6280886Y-4893981D01*
X6280886Y-4893981D02*
X6290410Y-4884458D01*
X6290410Y-4884458D02*
X6280886Y-4874934D01*
X6280886Y-4874934D02*
X6280886Y-4893981D01*
X6404696Y-5074934D02*
X6385648Y-5065410D01*
X6385648Y-5065410D02*
X6376124Y-5046362D01*
X6376124Y-5046362D02*
X6376124Y-4874934D01*
X6509458Y-5074934D02*
X6490410Y-5065410D01*
X6490410Y-5065410D02*
X6480886Y-5046362D01*
X6480886Y-5046362D02*
X6480886Y-4874934D01*
X6738029Y-5074934D02*
X6738029Y-4874934D01*
X6738029Y-4874934D02*
X6804696Y-5017791D01*
X6804696Y-5017791D02*
X6871362Y-4874934D01*
X6871362Y-4874934D02*
X6871362Y-5074934D01*
X7052315Y-5074934D02*
X7052315Y-4970172D01*
X7052315Y-4970172D02*
X7042791Y-4951124D01*
X7042791Y-4951124D02*
X7023743Y-4941600D01*
X7023743Y-4941600D02*
X6985648Y-4941600D01*
X6985648Y-4941600D02*
X6966601Y-4951124D01*
X7052315Y-5065410D02*
X7033267Y-5074934D01*
X7033267Y-5074934D02*
X6985648Y-5074934D01*
X6985648Y-5074934D02*
X6966601Y-5065410D01*
X6966601Y-5065410D02*
X6957077Y-5046362D01*
X6957077Y-5046362D02*
X6957077Y-5027315D01*
X6957077Y-5027315D02*
X6966601Y-5008267D01*
X6966601Y-5008267D02*
X6985648Y-4998743D01*
X6985648Y-4998743D02*
X7033267Y-4998743D01*
X7033267Y-4998743D02*
X7052315Y-4989220D01*
X7147553Y-4941600D02*
X7147553Y-5141600D01*
X7147553Y-4951124D02*
X7166601Y-4941600D01*
X7166601Y-4941600D02*
X7204696Y-4941600D01*
X7204696Y-4941600D02*
X7223743Y-4951124D01*
X7223743Y-4951124D02*
X7233267Y-4960648D01*
X7233267Y-4960648D02*
X7242791Y-4979696D01*
X7242791Y-4979696D02*
X7242791Y-5036839D01*
X7242791Y-5036839D02*
X7233267Y-5055886D01*
X7233267Y-5055886D02*
X7223743Y-5065410D01*
X7223743Y-5065410D02*
X7204696Y-5074934D01*
X7204696Y-5074934D02*
X7166601Y-5074934D01*
X7166601Y-5074934D02*
X7147553Y-5065410D01*
X7328505Y-5055886D02*
X7338029Y-5065410D01*
X7338029Y-5065410D02*
X7328505Y-5074934D01*
X7328505Y-5074934D02*
X7318982Y-5065410D01*
X7318982Y-5065410D02*
X7328505Y-5055886D01*
X7328505Y-5055886D02*
X7328505Y-5074934D01*
X7328505Y-4951124D02*
X7338029Y-4960648D01*
X7338029Y-4960648D02*
X7328505Y-4970172D01*
X7328505Y-4970172D02*
X7318982Y-4960648D01*
X7318982Y-4960648D02*
X7328505Y-4951124D01*
X7328505Y-4951124D02*
X7328505Y-4970172D01*
D14*
X5666300Y-5388450D02*
X5696300Y-5418450D01*
X5696300Y-5388450D02*
X5666300Y-5418450D01*
D13*
X5995172Y-5294934D02*
X6014220Y-5294934D01*
X6014220Y-5294934D02*
X6033267Y-5304458D01*
X6033267Y-5304458D02*
X6042791Y-5313981D01*
X6042791Y-5313981D02*
X6052315Y-5333029D01*
X6052315Y-5333029D02*
X6061839Y-5371124D01*
X6061839Y-5371124D02*
X6061839Y-5418743D01*
X6061839Y-5418743D02*
X6052315Y-5456839D01*
X6052315Y-5456839D02*
X6042791Y-5475886D01*
X6042791Y-5475886D02*
X6033267Y-5485410D01*
X6033267Y-5485410D02*
X6014220Y-5494934D01*
X6014220Y-5494934D02*
X5995172Y-5494934D01*
X5995172Y-5494934D02*
X5976124Y-5485410D01*
X5976124Y-5485410D02*
X5966601Y-5475886D01*
X5966601Y-5475886D02*
X5957077Y-5456839D01*
X5957077Y-5456839D02*
X5947553Y-5418743D01*
X5947553Y-5418743D02*
X5947553Y-5371124D01*
X5947553Y-5371124D02*
X5957077Y-5333029D01*
X5957077Y-5333029D02*
X5966601Y-5313981D01*
X5966601Y-5313981D02*
X5976124Y-5304458D01*
X5976124Y-5304458D02*
X5995172Y-5294934D01*
X6147553Y-5475886D02*
X6157077Y-5485410D01*
X6157077Y-5485410D02*
X6147553Y-5494934D01*
X6147553Y-5494934D02*
X6138029Y-5485410D01*
X6138029Y-5485410D02*
X6147553Y-5475886D01*
X6147553Y-5475886D02*
X6147553Y-5494934D01*
X6223743Y-5294934D02*
X6347553Y-5294934D01*
X6347553Y-5294934D02*
X6280886Y-5371124D01*
X6280886Y-5371124D02*
X6309458Y-5371124D01*
X6309458Y-5371124D02*
X6328505Y-5380648D01*
X6328505Y-5380648D02*
X6338029Y-5390172D01*
X6338029Y-5390172D02*
X6347553Y-5409220D01*
X6347553Y-5409220D02*
X6347553Y-5456839D01*
X6347553Y-5456839D02*
X6338029Y-5475886D01*
X6338029Y-5475886D02*
X6328505Y-5485410D01*
X6328505Y-5485410D02*
X6309458Y-5494934D01*
X6309458Y-5494934D02*
X6252315Y-5494934D01*
X6252315Y-5494934D02*
X6233267Y-5485410D01*
X6233267Y-5485410D02*
X6223743Y-5475886D01*
X6471362Y-5294934D02*
X6490410Y-5294934D01*
X6490410Y-5294934D02*
X6509458Y-5304458D01*
X6509458Y-5304458D02*
X6518982Y-5313981D01*
X6518982Y-5313981D02*
X6528505Y-5333029D01*
X6528505Y-5333029D02*
X6538029Y-5371124D01*
X6538029Y-5371124D02*
X6538029Y-5418743D01*
X6538029Y-5418743D02*
X6528505Y-5456839D01*
X6528505Y-5456839D02*
X6518982Y-5475886D01*
X6518982Y-5475886D02*
X6509458Y-5485410D01*
X6509458Y-5485410D02*
X6490410Y-5494934D01*
X6490410Y-5494934D02*
X6471362Y-5494934D01*
X6471362Y-5494934D02*
X6452315Y-5485410D01*
X6452315Y-5485410D02*
X6442791Y-5475886D01*
X6442791Y-5475886D02*
X6433267Y-5456839D01*
X6433267Y-5456839D02*
X6423743Y-5418743D01*
X6423743Y-5418743D02*
X6423743Y-5371124D01*
X6423743Y-5371124D02*
X6433267Y-5333029D01*
X6433267Y-5333029D02*
X6442791Y-5313981D01*
X6442791Y-5313981D02*
X6452315Y-5304458D01*
X6452315Y-5304458D02*
X6471362Y-5294934D01*
X6661839Y-5294934D02*
X6680886Y-5294934D01*
X6680886Y-5294934D02*
X6699934Y-5304458D01*
X6699934Y-5304458D02*
X6709458Y-5313981D01*
X6709458Y-5313981D02*
X6718982Y-5333029D01*
X6718982Y-5333029D02*
X6728505Y-5371124D01*
X6728505Y-5371124D02*
X6728505Y-5418743D01*
X6728505Y-5418743D02*
X6718982Y-5456839D01*
X6718982Y-5456839D02*
X6709458Y-5475886D01*
X6709458Y-5475886D02*
X6699934Y-5485410D01*
X6699934Y-5485410D02*
X6680886Y-5494934D01*
X6680886Y-5494934D02*
X6661839Y-5494934D01*
X6661839Y-5494934D02*
X6642791Y-5485410D01*
X6642791Y-5485410D02*
X6633267Y-5475886D01*
X6633267Y-5475886D02*
X6623743Y-5456839D01*
X6623743Y-5456839D02*
X6614220Y-5418743D01*
X6614220Y-5418743D02*
X6614220Y-5371124D01*
X6614220Y-5371124D02*
X6623743Y-5333029D01*
X6623743Y-5333029D02*
X6633267Y-5313981D01*
X6633267Y-5313981D02*
X6642791Y-5304458D01*
X6642791Y-5304458D02*
X6661839Y-5294934D01*
X6814220Y-5494934D02*
X6814220Y-5361600D01*
X6814220Y-5380648D02*
X6823743Y-5371124D01*
X6823743Y-5371124D02*
X6842791Y-5361600D01*
X6842791Y-5361600D02*
X6871363Y-5361600D01*
X6871363Y-5361600D02*
X6890410Y-5371124D01*
X6890410Y-5371124D02*
X6899934Y-5390172D01*
X6899934Y-5390172D02*
X6899934Y-5494934D01*
X6899934Y-5390172D02*
X6909458Y-5371124D01*
X6909458Y-5371124D02*
X6928505Y-5361600D01*
X6928505Y-5361600D02*
X6957077Y-5361600D01*
X6957077Y-5361600D02*
X6976124Y-5371124D01*
X6976124Y-5371124D02*
X6985648Y-5390172D01*
X6985648Y-5390172D02*
X6985648Y-5494934D01*
X7080886Y-5494934D02*
X7080886Y-5361600D01*
X7080886Y-5380648D02*
X7090410Y-5371124D01*
X7090410Y-5371124D02*
X7109458Y-5361600D01*
X7109458Y-5361600D02*
X7138029Y-5361600D01*
X7138029Y-5361600D02*
X7157077Y-5371124D01*
X7157077Y-5371124D02*
X7166601Y-5390172D01*
X7166601Y-5390172D02*
X7166601Y-5494934D01*
X7166601Y-5390172D02*
X7176124Y-5371124D01*
X7176124Y-5371124D02*
X7195172Y-5361600D01*
X7195172Y-5361600D02*
X7223743Y-5361600D01*
X7223743Y-5361600D02*
X7242791Y-5371124D01*
X7242791Y-5371124D02*
X7252315Y-5390172D01*
X7252315Y-5390172D02*
X7252315Y-5494934D01*
X7642791Y-5285410D02*
X7471363Y-5542553D01*
X7899934Y-5294934D02*
X7918982Y-5294934D01*
X7918982Y-5294934D02*
X7938029Y-5304458D01*
X7938029Y-5304458D02*
X7947553Y-5313981D01*
X7947553Y-5313981D02*
X7957077Y-5333029D01*
X7957077Y-5333029D02*
X7966601Y-5371124D01*
X7966601Y-5371124D02*
X7966601Y-5418743D01*
X7966601Y-5418743D02*
X7957077Y-5456839D01*
X7957077Y-5456839D02*
X7947553Y-5475886D01*
X7947553Y-5475886D02*
X7938029Y-5485410D01*
X7938029Y-5485410D02*
X7918982Y-5494934D01*
X7918982Y-5494934D02*
X7899934Y-5494934D01*
X7899934Y-5494934D02*
X7880886Y-5485410D01*
X7880886Y-5485410D02*
X7871363Y-5475886D01*
X7871363Y-5475886D02*
X7861839Y-5456839D01*
X7861839Y-5456839D02*
X7852315Y-5418743D01*
X7852315Y-5418743D02*
X7852315Y-5371124D01*
X7852315Y-5371124D02*
X7861839Y-5333029D01*
X7861839Y-5333029D02*
X7871363Y-5313981D01*
X7871363Y-5313981D02*
X7880886Y-5304458D01*
X7880886Y-5304458D02*
X7899934Y-5294934D01*
X8052315Y-5475886D02*
X8061839Y-5485410D01*
X8061839Y-5485410D02*
X8052315Y-5494934D01*
X8052315Y-5494934D02*
X8042791Y-5485410D01*
X8042791Y-5485410D02*
X8052315Y-5475886D01*
X8052315Y-5475886D02*
X8052315Y-5494934D01*
X8185648Y-5294934D02*
X8204696Y-5294934D01*
X8204696Y-5294934D02*
X8223744Y-5304458D01*
X8223744Y-5304458D02*
X8233267Y-5313981D01*
X8233267Y-5313981D02*
X8242791Y-5333029D01*
X8242791Y-5333029D02*
X8252315Y-5371124D01*
X8252315Y-5371124D02*
X8252315Y-5418743D01*
X8252315Y-5418743D02*
X8242791Y-5456839D01*
X8242791Y-5456839D02*
X8233267Y-5475886D01*
X8233267Y-5475886D02*
X8223744Y-5485410D01*
X8223744Y-5485410D02*
X8204696Y-5494934D01*
X8204696Y-5494934D02*
X8185648Y-5494934D01*
X8185648Y-5494934D02*
X8166601Y-5485410D01*
X8166601Y-5485410D02*
X8157077Y-5475886D01*
X8157077Y-5475886D02*
X8147553Y-5456839D01*
X8147553Y-5456839D02*
X8138029Y-5418743D01*
X8138029Y-5418743D02*
X8138029Y-5371124D01*
X8138029Y-5371124D02*
X8147553Y-5333029D01*
X8147553Y-5333029D02*
X8157077Y-5313981D01*
X8157077Y-5313981D02*
X8166601Y-5304458D01*
X8166601Y-5304458D02*
X8185648Y-5294934D01*
X8442791Y-5494934D02*
X8328506Y-5494934D01*
X8385648Y-5494934D02*
X8385648Y-5294934D01*
X8385648Y-5294934D02*
X8366601Y-5323505D01*
X8366601Y-5323505D02*
X8347553Y-5342553D01*
X8347553Y-5342553D02*
X8328506Y-5352077D01*
X8633268Y-5494934D02*
X8518982Y-5494934D01*
X8576125Y-5494934D02*
X8576125Y-5294934D01*
X8576125Y-5294934D02*
X8557077Y-5323505D01*
X8557077Y-5323505D02*
X8538029Y-5342553D01*
X8538029Y-5342553D02*
X8518982Y-5352077D01*
X8747553Y-5380648D02*
X8728506Y-5371124D01*
X8728506Y-5371124D02*
X8718982Y-5361600D01*
X8718982Y-5361600D02*
X8709458Y-5342553D01*
X8709458Y-5342553D02*
X8709458Y-5333029D01*
X8709458Y-5333029D02*
X8718982Y-5313981D01*
X8718982Y-5313981D02*
X8728506Y-5304458D01*
X8728506Y-5304458D02*
X8747553Y-5294934D01*
X8747553Y-5294934D02*
X8785649Y-5294934D01*
X8785649Y-5294934D02*
X8804696Y-5304458D01*
X8804696Y-5304458D02*
X8814220Y-5313981D01*
X8814220Y-5313981D02*
X8823744Y-5333029D01*
X8823744Y-5333029D02*
X8823744Y-5342553D01*
X8823744Y-5342553D02*
X8814220Y-5361600D01*
X8814220Y-5361600D02*
X8804696Y-5371124D01*
X8804696Y-5371124D02*
X8785649Y-5380648D01*
X8785649Y-5380648D02*
X8747553Y-5380648D01*
X8747553Y-5380648D02*
X8728506Y-5390172D01*
X8728506Y-5390172D02*
X8718982Y-5399696D01*
X8718982Y-5399696D02*
X8709458Y-5418743D01*
X8709458Y-5418743D02*
X8709458Y-5456839D01*
X8709458Y-5456839D02*
X8718982Y-5475886D01*
X8718982Y-5475886D02*
X8728506Y-5485410D01*
X8728506Y-5485410D02*
X8747553Y-5494934D01*
X8747553Y-5494934D02*
X8785649Y-5494934D01*
X8785649Y-5494934D02*
X8804696Y-5485410D01*
X8804696Y-5485410D02*
X8814220Y-5475886D01*
X8814220Y-5475886D02*
X8823744Y-5456839D01*
X8823744Y-5456839D02*
X8823744Y-5418743D01*
X8823744Y-5418743D02*
X8814220Y-5399696D01*
X8814220Y-5399696D02*
X8804696Y-5390172D01*
X8804696Y-5390172D02*
X8785649Y-5380648D01*
X8899934Y-5294934D02*
X8899934Y-5333029D01*
X8976125Y-5294934D02*
X8976125Y-5333029D01*
X9271363Y-5571124D02*
X9261839Y-5561600D01*
X9261839Y-5561600D02*
X9242791Y-5533029D01*
X9242791Y-5533029D02*
X9233268Y-5513981D01*
X9233268Y-5513981D02*
X9223744Y-5485410D01*
X9223744Y-5485410D02*
X9214220Y-5437791D01*
X9214220Y-5437791D02*
X9214220Y-5399696D01*
X9214220Y-5399696D02*
X9223744Y-5352077D01*
X9223744Y-5352077D02*
X9233268Y-5323505D01*
X9233268Y-5323505D02*
X9242791Y-5304458D01*
X9242791Y-5304458D02*
X9261839Y-5275886D01*
X9261839Y-5275886D02*
X9271363Y-5266362D01*
X9328506Y-5294934D02*
X9452315Y-5294934D01*
X9452315Y-5294934D02*
X9385649Y-5371124D01*
X9385649Y-5371124D02*
X9414220Y-5371124D01*
X9414220Y-5371124D02*
X9433268Y-5380648D01*
X9433268Y-5380648D02*
X9442791Y-5390172D01*
X9442791Y-5390172D02*
X9452315Y-5409220D01*
X9452315Y-5409220D02*
X9452315Y-5456839D01*
X9452315Y-5456839D02*
X9442791Y-5475886D01*
X9442791Y-5475886D02*
X9433268Y-5485410D01*
X9433268Y-5485410D02*
X9414220Y-5494934D01*
X9414220Y-5494934D02*
X9357077Y-5494934D01*
X9357077Y-5494934D02*
X9338030Y-5485410D01*
X9338030Y-5485410D02*
X9328506Y-5475886D01*
X9547553Y-5494934D02*
X9585649Y-5494934D01*
X9585649Y-5494934D02*
X9604696Y-5485410D01*
X9604696Y-5485410D02*
X9614220Y-5475886D01*
X9614220Y-5475886D02*
X9633268Y-5447315D01*
X9633268Y-5447315D02*
X9642791Y-5409220D01*
X9642791Y-5409220D02*
X9642791Y-5333029D01*
X9642791Y-5333029D02*
X9633268Y-5313981D01*
X9633268Y-5313981D02*
X9623744Y-5304458D01*
X9623744Y-5304458D02*
X9604696Y-5294934D01*
X9604696Y-5294934D02*
X9566601Y-5294934D01*
X9566601Y-5294934D02*
X9547553Y-5304458D01*
X9547553Y-5304458D02*
X9538030Y-5313981D01*
X9538030Y-5313981D02*
X9528506Y-5333029D01*
X9528506Y-5333029D02*
X9528506Y-5380648D01*
X9528506Y-5380648D02*
X9538030Y-5399696D01*
X9538030Y-5399696D02*
X9547553Y-5409220D01*
X9547553Y-5409220D02*
X9566601Y-5418743D01*
X9566601Y-5418743D02*
X9604696Y-5418743D01*
X9604696Y-5418743D02*
X9623744Y-5409220D01*
X9623744Y-5409220D02*
X9633268Y-5399696D01*
X9633268Y-5399696D02*
X9642791Y-5380648D01*
X9880887Y-5494934D02*
X9880887Y-5294934D01*
X9966601Y-5494934D02*
X9966601Y-5390172D01*
X9966601Y-5390172D02*
X9957077Y-5371124D01*
X9957077Y-5371124D02*
X9938030Y-5361600D01*
X9938030Y-5361600D02*
X9909458Y-5361600D01*
X9909458Y-5361600D02*
X9890411Y-5371124D01*
X9890411Y-5371124D02*
X9880887Y-5380648D01*
X10090411Y-5494934D02*
X10071363Y-5485410D01*
X10071363Y-5485410D02*
X10061839Y-5475886D01*
X10061839Y-5475886D02*
X10052315Y-5456839D01*
X10052315Y-5456839D02*
X10052315Y-5399696D01*
X10052315Y-5399696D02*
X10061839Y-5380648D01*
X10061839Y-5380648D02*
X10071363Y-5371124D01*
X10071363Y-5371124D02*
X10090411Y-5361600D01*
X10090411Y-5361600D02*
X10118982Y-5361600D01*
X10118982Y-5361600D02*
X10138030Y-5371124D01*
X10138030Y-5371124D02*
X10147553Y-5380648D01*
X10147553Y-5380648D02*
X10157077Y-5399696D01*
X10157077Y-5399696D02*
X10157077Y-5456839D01*
X10157077Y-5456839D02*
X10147553Y-5475886D01*
X10147553Y-5475886D02*
X10138030Y-5485410D01*
X10138030Y-5485410D02*
X10118982Y-5494934D01*
X10118982Y-5494934D02*
X10090411Y-5494934D01*
X10271363Y-5494934D02*
X10252315Y-5485410D01*
X10252315Y-5485410D02*
X10242792Y-5466362D01*
X10242792Y-5466362D02*
X10242792Y-5294934D01*
X10423744Y-5485410D02*
X10404696Y-5494934D01*
X10404696Y-5494934D02*
X10366601Y-5494934D01*
X10366601Y-5494934D02*
X10347553Y-5485410D01*
X10347553Y-5485410D02*
X10338030Y-5466362D01*
X10338030Y-5466362D02*
X10338030Y-5390172D01*
X10338030Y-5390172D02*
X10347553Y-5371124D01*
X10347553Y-5371124D02*
X10366601Y-5361600D01*
X10366601Y-5361600D02*
X10404696Y-5361600D01*
X10404696Y-5361600D02*
X10423744Y-5371124D01*
X10423744Y-5371124D02*
X10433268Y-5390172D01*
X10433268Y-5390172D02*
X10433268Y-5409220D01*
X10433268Y-5409220D02*
X10338030Y-5428267D01*
X10509458Y-5485410D02*
X10528506Y-5494934D01*
X10528506Y-5494934D02*
X10566601Y-5494934D01*
X10566601Y-5494934D02*
X10585649Y-5485410D01*
X10585649Y-5485410D02*
X10595173Y-5466362D01*
X10595173Y-5466362D02*
X10595173Y-5456839D01*
X10595173Y-5456839D02*
X10585649Y-5437791D01*
X10585649Y-5437791D02*
X10566601Y-5428267D01*
X10566601Y-5428267D02*
X10538030Y-5428267D01*
X10538030Y-5428267D02*
X10518982Y-5418743D01*
X10518982Y-5418743D02*
X10509458Y-5399696D01*
X10509458Y-5399696D02*
X10509458Y-5390172D01*
X10509458Y-5390172D02*
X10518982Y-5371124D01*
X10518982Y-5371124D02*
X10538030Y-5361600D01*
X10538030Y-5361600D02*
X10566601Y-5361600D01*
X10566601Y-5361600D02*
X10585649Y-5371124D01*
X10661839Y-5571124D02*
X10671363Y-5561600D01*
X10671363Y-5561600D02*
X10690411Y-5533029D01*
X10690411Y-5533029D02*
X10699934Y-5513981D01*
X10699934Y-5513981D02*
X10709458Y-5485410D01*
X10709458Y-5485410D02*
X10718982Y-5437791D01*
X10718982Y-5437791D02*
X10718982Y-5399696D01*
X10718982Y-5399696D02*
X10709458Y-5352077D01*
X10709458Y-5352077D02*
X10699934Y-5323505D01*
X10699934Y-5323505D02*
X10690411Y-5304458D01*
X10690411Y-5304458D02*
X10671363Y-5275886D01*
X10671363Y-5275886D02*
X10661839Y-5266362D01*
D14*
X5696300Y-5667450D02*
G75*
G02*
X5615300Y-5667450I-40500J0D01*
G01*
X5615300Y-5667450D02*
G75*
G02*
X5696300Y-5667450I40500J0D01*
G01*
D13*
X5995172Y-5558934D02*
X6014220Y-5558934D01*
X6014220Y-5558934D02*
X6033267Y-5568458D01*
X6033267Y-5568458D02*
X6042791Y-5577981D01*
X6042791Y-5577981D02*
X6052315Y-5597029D01*
X6052315Y-5597029D02*
X6061839Y-5635124D01*
X6061839Y-5635124D02*
X6061839Y-5682743D01*
X6061839Y-5682743D02*
X6052315Y-5720838D01*
X6052315Y-5720838D02*
X6042791Y-5739886D01*
X6042791Y-5739886D02*
X6033267Y-5749410D01*
X6033267Y-5749410D02*
X6014220Y-5758934D01*
X6014220Y-5758934D02*
X5995172Y-5758934D01*
X5995172Y-5758934D02*
X5976124Y-5749410D01*
X5976124Y-5749410D02*
X5966601Y-5739886D01*
X5966601Y-5739886D02*
X5957077Y-5720838D01*
X5957077Y-5720838D02*
X5947553Y-5682743D01*
X5947553Y-5682743D02*
X5947553Y-5635124D01*
X5947553Y-5635124D02*
X5957077Y-5597029D01*
X5957077Y-5597029D02*
X5966601Y-5577981D01*
X5966601Y-5577981D02*
X5976124Y-5568458D01*
X5976124Y-5568458D02*
X5995172Y-5558934D01*
X6147553Y-5739886D02*
X6157077Y-5749410D01*
X6157077Y-5749410D02*
X6147553Y-5758934D01*
X6147553Y-5758934D02*
X6138029Y-5749410D01*
X6138029Y-5749410D02*
X6147553Y-5739886D01*
X6147553Y-5739886D02*
X6147553Y-5758934D01*
X6271362Y-5644648D02*
X6252315Y-5635124D01*
X6252315Y-5635124D02*
X6242791Y-5625600D01*
X6242791Y-5625600D02*
X6233267Y-5606553D01*
X6233267Y-5606553D02*
X6233267Y-5597029D01*
X6233267Y-5597029D02*
X6242791Y-5577981D01*
X6242791Y-5577981D02*
X6252315Y-5568458D01*
X6252315Y-5568458D02*
X6271362Y-5558934D01*
X6271362Y-5558934D02*
X6309458Y-5558934D01*
X6309458Y-5558934D02*
X6328505Y-5568458D01*
X6328505Y-5568458D02*
X6338029Y-5577981D01*
X6338029Y-5577981D02*
X6347553Y-5597029D01*
X6347553Y-5597029D02*
X6347553Y-5606553D01*
X6347553Y-5606553D02*
X6338029Y-5625600D01*
X6338029Y-5625600D02*
X6328505Y-5635124D01*
X6328505Y-5635124D02*
X6309458Y-5644648D01*
X6309458Y-5644648D02*
X6271362Y-5644648D01*
X6271362Y-5644648D02*
X6252315Y-5654172D01*
X6252315Y-5654172D02*
X6242791Y-5663696D01*
X6242791Y-5663696D02*
X6233267Y-5682743D01*
X6233267Y-5682743D02*
X6233267Y-5720838D01*
X6233267Y-5720838D02*
X6242791Y-5739886D01*
X6242791Y-5739886D02*
X6252315Y-5749410D01*
X6252315Y-5749410D02*
X6271362Y-5758934D01*
X6271362Y-5758934D02*
X6309458Y-5758934D01*
X6309458Y-5758934D02*
X6328505Y-5749410D01*
X6328505Y-5749410D02*
X6338029Y-5739886D01*
X6338029Y-5739886D02*
X6347553Y-5720838D01*
X6347553Y-5720838D02*
X6347553Y-5682743D01*
X6347553Y-5682743D02*
X6338029Y-5663696D01*
X6338029Y-5663696D02*
X6328505Y-5654172D01*
X6328505Y-5654172D02*
X6309458Y-5644648D01*
X6538029Y-5758934D02*
X6423743Y-5758934D01*
X6480886Y-5758934D02*
X6480886Y-5558934D01*
X6480886Y-5558934D02*
X6461839Y-5587505D01*
X6461839Y-5587505D02*
X6442791Y-5606553D01*
X6442791Y-5606553D02*
X6423743Y-5616077D01*
X6661839Y-5558934D02*
X6680886Y-5558934D01*
X6680886Y-5558934D02*
X6699934Y-5568458D01*
X6699934Y-5568458D02*
X6709458Y-5577981D01*
X6709458Y-5577981D02*
X6718982Y-5597029D01*
X6718982Y-5597029D02*
X6728505Y-5635124D01*
X6728505Y-5635124D02*
X6728505Y-5682743D01*
X6728505Y-5682743D02*
X6718982Y-5720838D01*
X6718982Y-5720838D02*
X6709458Y-5739886D01*
X6709458Y-5739886D02*
X6699934Y-5749410D01*
X6699934Y-5749410D02*
X6680886Y-5758934D01*
X6680886Y-5758934D02*
X6661839Y-5758934D01*
X6661839Y-5758934D02*
X6642791Y-5749410D01*
X6642791Y-5749410D02*
X6633267Y-5739886D01*
X6633267Y-5739886D02*
X6623743Y-5720838D01*
X6623743Y-5720838D02*
X6614220Y-5682743D01*
X6614220Y-5682743D02*
X6614220Y-5635124D01*
X6614220Y-5635124D02*
X6623743Y-5597029D01*
X6623743Y-5597029D02*
X6633267Y-5577981D01*
X6633267Y-5577981D02*
X6642791Y-5568458D01*
X6642791Y-5568458D02*
X6661839Y-5558934D01*
X6814220Y-5758934D02*
X6814220Y-5625600D01*
X6814220Y-5644648D02*
X6823743Y-5635124D01*
X6823743Y-5635124D02*
X6842791Y-5625600D01*
X6842791Y-5625600D02*
X6871363Y-5625600D01*
X6871363Y-5625600D02*
X6890410Y-5635124D01*
X6890410Y-5635124D02*
X6899934Y-5654172D01*
X6899934Y-5654172D02*
X6899934Y-5758934D01*
X6899934Y-5654172D02*
X6909458Y-5635124D01*
X6909458Y-5635124D02*
X6928505Y-5625600D01*
X6928505Y-5625600D02*
X6957077Y-5625600D01*
X6957077Y-5625600D02*
X6976124Y-5635124D01*
X6976124Y-5635124D02*
X6985648Y-5654172D01*
X6985648Y-5654172D02*
X6985648Y-5758934D01*
X7080886Y-5758934D02*
X7080886Y-5625600D01*
X7080886Y-5644648D02*
X7090410Y-5635124D01*
X7090410Y-5635124D02*
X7109458Y-5625600D01*
X7109458Y-5625600D02*
X7138029Y-5625600D01*
X7138029Y-5625600D02*
X7157077Y-5635124D01*
X7157077Y-5635124D02*
X7166601Y-5654172D01*
X7166601Y-5654172D02*
X7166601Y-5758934D01*
X7166601Y-5654172D02*
X7176124Y-5635124D01*
X7176124Y-5635124D02*
X7195172Y-5625600D01*
X7195172Y-5625600D02*
X7223743Y-5625600D01*
X7223743Y-5625600D02*
X7242791Y-5635124D01*
X7242791Y-5635124D02*
X7252315Y-5654172D01*
X7252315Y-5654172D02*
X7252315Y-5758934D01*
X7642791Y-5549410D02*
X7471363Y-5806553D01*
X7899934Y-5558934D02*
X7918982Y-5558934D01*
X7918982Y-5558934D02*
X7938029Y-5568458D01*
X7938029Y-5568458D02*
X7947553Y-5577981D01*
X7947553Y-5577981D02*
X7957077Y-5597029D01*
X7957077Y-5597029D02*
X7966601Y-5635124D01*
X7966601Y-5635124D02*
X7966601Y-5682743D01*
X7966601Y-5682743D02*
X7957077Y-5720838D01*
X7957077Y-5720838D02*
X7947553Y-5739886D01*
X7947553Y-5739886D02*
X7938029Y-5749410D01*
X7938029Y-5749410D02*
X7918982Y-5758934D01*
X7918982Y-5758934D02*
X7899934Y-5758934D01*
X7899934Y-5758934D02*
X7880886Y-5749410D01*
X7880886Y-5749410D02*
X7871363Y-5739886D01*
X7871363Y-5739886D02*
X7861839Y-5720838D01*
X7861839Y-5720838D02*
X7852315Y-5682743D01*
X7852315Y-5682743D02*
X7852315Y-5635124D01*
X7852315Y-5635124D02*
X7861839Y-5597029D01*
X7861839Y-5597029D02*
X7871363Y-5577981D01*
X7871363Y-5577981D02*
X7880886Y-5568458D01*
X7880886Y-5568458D02*
X7899934Y-5558934D01*
X8052315Y-5739886D02*
X8061839Y-5749410D01*
X8061839Y-5749410D02*
X8052315Y-5758934D01*
X8052315Y-5758934D02*
X8042791Y-5749410D01*
X8042791Y-5749410D02*
X8052315Y-5739886D01*
X8052315Y-5739886D02*
X8052315Y-5758934D01*
X8185648Y-5558934D02*
X8204696Y-5558934D01*
X8204696Y-5558934D02*
X8223744Y-5568458D01*
X8223744Y-5568458D02*
X8233267Y-5577981D01*
X8233267Y-5577981D02*
X8242791Y-5597029D01*
X8242791Y-5597029D02*
X8252315Y-5635124D01*
X8252315Y-5635124D02*
X8252315Y-5682743D01*
X8252315Y-5682743D02*
X8242791Y-5720838D01*
X8242791Y-5720838D02*
X8233267Y-5739886D01*
X8233267Y-5739886D02*
X8223744Y-5749410D01*
X8223744Y-5749410D02*
X8204696Y-5758934D01*
X8204696Y-5758934D02*
X8185648Y-5758934D01*
X8185648Y-5758934D02*
X8166601Y-5749410D01*
X8166601Y-5749410D02*
X8157077Y-5739886D01*
X8157077Y-5739886D02*
X8147553Y-5720838D01*
X8147553Y-5720838D02*
X8138029Y-5682743D01*
X8138029Y-5682743D02*
X8138029Y-5635124D01*
X8138029Y-5635124D02*
X8147553Y-5597029D01*
X8147553Y-5597029D02*
X8157077Y-5577981D01*
X8157077Y-5577981D02*
X8166601Y-5568458D01*
X8166601Y-5568458D02*
X8185648Y-5558934D01*
X8318982Y-5558934D02*
X8442791Y-5558934D01*
X8442791Y-5558934D02*
X8376125Y-5635124D01*
X8376125Y-5635124D02*
X8404696Y-5635124D01*
X8404696Y-5635124D02*
X8423744Y-5644648D01*
X8423744Y-5644648D02*
X8433268Y-5654172D01*
X8433268Y-5654172D02*
X8442791Y-5673219D01*
X8442791Y-5673219D02*
X8442791Y-5720838D01*
X8442791Y-5720838D02*
X8433268Y-5739886D01*
X8433268Y-5739886D02*
X8423744Y-5749410D01*
X8423744Y-5749410D02*
X8404696Y-5758934D01*
X8404696Y-5758934D02*
X8347553Y-5758934D01*
X8347553Y-5758934D02*
X8328506Y-5749410D01*
X8328506Y-5749410D02*
X8318982Y-5739886D01*
X8633268Y-5758934D02*
X8518982Y-5758934D01*
X8576125Y-5758934D02*
X8576125Y-5558934D01*
X8576125Y-5558934D02*
X8557077Y-5587505D01*
X8557077Y-5587505D02*
X8538029Y-5606553D01*
X8538029Y-5606553D02*
X8518982Y-5616077D01*
X8728506Y-5758934D02*
X8766601Y-5758934D01*
X8766601Y-5758934D02*
X8785649Y-5749410D01*
X8785649Y-5749410D02*
X8795172Y-5739886D01*
X8795172Y-5739886D02*
X8814220Y-5711315D01*
X8814220Y-5711315D02*
X8823744Y-5673219D01*
X8823744Y-5673219D02*
X8823744Y-5597029D01*
X8823744Y-5597029D02*
X8814220Y-5577981D01*
X8814220Y-5577981D02*
X8804696Y-5568458D01*
X8804696Y-5568458D02*
X8785649Y-5558934D01*
X8785649Y-5558934D02*
X8747553Y-5558934D01*
X8747553Y-5558934D02*
X8728506Y-5568458D01*
X8728506Y-5568458D02*
X8718982Y-5577981D01*
X8718982Y-5577981D02*
X8709458Y-5597029D01*
X8709458Y-5597029D02*
X8709458Y-5644648D01*
X8709458Y-5644648D02*
X8718982Y-5663696D01*
X8718982Y-5663696D02*
X8728506Y-5673219D01*
X8728506Y-5673219D02*
X8747553Y-5682743D01*
X8747553Y-5682743D02*
X8785649Y-5682743D01*
X8785649Y-5682743D02*
X8804696Y-5673219D01*
X8804696Y-5673219D02*
X8814220Y-5663696D01*
X8814220Y-5663696D02*
X8823744Y-5644648D01*
X8899934Y-5558934D02*
X8899934Y-5597029D01*
X8976125Y-5558934D02*
X8976125Y-5597029D01*
X9271363Y-5835124D02*
X9261839Y-5825600D01*
X9261839Y-5825600D02*
X9242791Y-5797029D01*
X9242791Y-5797029D02*
X9233268Y-5777981D01*
X9233268Y-5777981D02*
X9223744Y-5749410D01*
X9223744Y-5749410D02*
X9214220Y-5701791D01*
X9214220Y-5701791D02*
X9214220Y-5663696D01*
X9214220Y-5663696D02*
X9223744Y-5616077D01*
X9223744Y-5616077D02*
X9233268Y-5587505D01*
X9233268Y-5587505D02*
X9242791Y-5568458D01*
X9242791Y-5568458D02*
X9261839Y-5539886D01*
X9261839Y-5539886D02*
X9271363Y-5530362D01*
X9433268Y-5558934D02*
X9395172Y-5558934D01*
X9395172Y-5558934D02*
X9376125Y-5568458D01*
X9376125Y-5568458D02*
X9366601Y-5577981D01*
X9366601Y-5577981D02*
X9347553Y-5606553D01*
X9347553Y-5606553D02*
X9338030Y-5644648D01*
X9338030Y-5644648D02*
X9338030Y-5720838D01*
X9338030Y-5720838D02*
X9347553Y-5739886D01*
X9347553Y-5739886D02*
X9357077Y-5749410D01*
X9357077Y-5749410D02*
X9376125Y-5758934D01*
X9376125Y-5758934D02*
X9414220Y-5758934D01*
X9414220Y-5758934D02*
X9433268Y-5749410D01*
X9433268Y-5749410D02*
X9442791Y-5739886D01*
X9442791Y-5739886D02*
X9452315Y-5720838D01*
X9452315Y-5720838D02*
X9452315Y-5673219D01*
X9452315Y-5673219D02*
X9442791Y-5654172D01*
X9442791Y-5654172D02*
X9433268Y-5644648D01*
X9433268Y-5644648D02*
X9414220Y-5635124D01*
X9414220Y-5635124D02*
X9376125Y-5635124D01*
X9376125Y-5635124D02*
X9357077Y-5644648D01*
X9357077Y-5644648D02*
X9347553Y-5654172D01*
X9347553Y-5654172D02*
X9338030Y-5673219D01*
X9690411Y-5758934D02*
X9690411Y-5558934D01*
X9776125Y-5758934D02*
X9776125Y-5654172D01*
X9776125Y-5654172D02*
X9766601Y-5635124D01*
X9766601Y-5635124D02*
X9747553Y-5625600D01*
X9747553Y-5625600D02*
X9718982Y-5625600D01*
X9718982Y-5625600D02*
X9699934Y-5635124D01*
X9699934Y-5635124D02*
X9690411Y-5644648D01*
X9899934Y-5758934D02*
X9880887Y-5749410D01*
X9880887Y-5749410D02*
X9871363Y-5739886D01*
X9871363Y-5739886D02*
X9861839Y-5720838D01*
X9861839Y-5720838D02*
X9861839Y-5663696D01*
X9861839Y-5663696D02*
X9871363Y-5644648D01*
X9871363Y-5644648D02*
X9880887Y-5635124D01*
X9880887Y-5635124D02*
X9899934Y-5625600D01*
X9899934Y-5625600D02*
X9928506Y-5625600D01*
X9928506Y-5625600D02*
X9947553Y-5635124D01*
X9947553Y-5635124D02*
X9957077Y-5644648D01*
X9957077Y-5644648D02*
X9966601Y-5663696D01*
X9966601Y-5663696D02*
X9966601Y-5720838D01*
X9966601Y-5720838D02*
X9957077Y-5739886D01*
X9957077Y-5739886D02*
X9947553Y-5749410D01*
X9947553Y-5749410D02*
X9928506Y-5758934D01*
X9928506Y-5758934D02*
X9899934Y-5758934D01*
X10080887Y-5758934D02*
X10061839Y-5749410D01*
X10061839Y-5749410D02*
X10052315Y-5730362D01*
X10052315Y-5730362D02*
X10052315Y-5558934D01*
X10233268Y-5749410D02*
X10214220Y-5758934D01*
X10214220Y-5758934D02*
X10176125Y-5758934D01*
X10176125Y-5758934D02*
X10157077Y-5749410D01*
X10157077Y-5749410D02*
X10147553Y-5730362D01*
X10147553Y-5730362D02*
X10147553Y-5654172D01*
X10147553Y-5654172D02*
X10157077Y-5635124D01*
X10157077Y-5635124D02*
X10176125Y-5625600D01*
X10176125Y-5625600D02*
X10214220Y-5625600D01*
X10214220Y-5625600D02*
X10233268Y-5635124D01*
X10233268Y-5635124D02*
X10242792Y-5654172D01*
X10242792Y-5654172D02*
X10242792Y-5673219D01*
X10242792Y-5673219D02*
X10147553Y-5692267D01*
X10318982Y-5749410D02*
X10338030Y-5758934D01*
X10338030Y-5758934D02*
X10376125Y-5758934D01*
X10376125Y-5758934D02*
X10395173Y-5749410D01*
X10395173Y-5749410D02*
X10404696Y-5730362D01*
X10404696Y-5730362D02*
X10404696Y-5720838D01*
X10404696Y-5720838D02*
X10395173Y-5701791D01*
X10395173Y-5701791D02*
X10376125Y-5692267D01*
X10376125Y-5692267D02*
X10347553Y-5692267D01*
X10347553Y-5692267D02*
X10328506Y-5682743D01*
X10328506Y-5682743D02*
X10318982Y-5663696D01*
X10318982Y-5663696D02*
X10318982Y-5654172D01*
X10318982Y-5654172D02*
X10328506Y-5635124D01*
X10328506Y-5635124D02*
X10347553Y-5625600D01*
X10347553Y-5625600D02*
X10376125Y-5625600D01*
X10376125Y-5625600D02*
X10395173Y-5635124D01*
X10471363Y-5835124D02*
X10480887Y-5825600D01*
X10480887Y-5825600D02*
X10499934Y-5797029D01*
X10499934Y-5797029D02*
X10509458Y-5777981D01*
X10509458Y-5777981D02*
X10518982Y-5749410D01*
X10518982Y-5749410D02*
X10528506Y-5701791D01*
X10528506Y-5701791D02*
X10528506Y-5663696D01*
X10528506Y-5663696D02*
X10518982Y-5616077D01*
X10518982Y-5616077D02*
X10509458Y-5587505D01*
X10509458Y-5587505D02*
X10499934Y-5568458D01*
X10499934Y-5568458D02*
X10480887Y-5539886D01*
X10480887Y-5539886D02*
X10471363Y-5530362D01*
M02*
