G04 #@! TF.GenerationSoftware,KiCad,Pcbnew,8.0.4+dfsg-1*
G04 #@! TF.CreationDate,2025-01-09T13:17:03-05:00*
G04 #@! TF.ProjectId,tag,7461672e-6b69-4636-9164-5f7063625858,1*
G04 #@! TF.SameCoordinates,Original*
G04 #@! TF.FileFunction,Paste,Top*
G04 #@! TF.FilePolarity,Positive*
%FSLAX46Y46*%
G04 Gerber Fmt 4.6, Leading zero omitted, Abs format (unit mm)*
G04 Created by KiCad (PCBNEW 8.0.4+dfsg-1) date 2025-01-09 13:17:03*
%MOMM*%
%LPD*%
G01*
G04 APERTURE LIST*
G04 Aperture macros list*
%AMRoundRect*
0 Rectangle with rounded corners*
0 $1 Rounding radius*
0 $2 $3 $4 $5 $6 $7 $8 $9 X,Y pos of 4 corners*
0 Add a 4 corners polygon primitive as box body*
4,1,4,$2,$3,$4,$5,$6,$7,$8,$9,$2,$3,0*
0 Add four circle primitives for the rounded corners*
1,1,$1+$1,$2,$3*
1,1,$1+$1,$4,$5*
1,1,$1+$1,$6,$7*
1,1,$1+$1,$8,$9*
0 Add four rect primitives between the rounded corners*
20,1,$1+$1,$2,$3,$4,$5,0*
20,1,$1+$1,$4,$5,$6,$7,0*
20,1,$1+$1,$6,$7,$8,$9,0*
20,1,$1+$1,$8,$9,$2,$3,0*%
G04 Aperture macros list end*
%ADD10C,0.560000*%
%ADD11R,0.600000X0.540000*%
%ADD12RoundRect,0.135000X0.135000X0.185000X-0.135000X0.185000X-0.135000X-0.185000X0.135000X-0.185000X0*%
%ADD13R,0.660400X1.549400*%
%ADD14R,1.295400X1.905000*%
%ADD15RoundRect,0.135000X-0.135000X-0.185000X0.135000X-0.185000X0.135000X0.185000X-0.135000X0.185000X0*%
%ADD16R,2.400000X0.740000*%
%ADD17R,1.270000X3.430000*%
%ADD18R,0.600000X1.300000*%
%ADD19R,3.430000X1.270000*%
%ADD20R,0.600000X1.200000*%
%ADD21R,0.800000X0.800000*%
%ADD22RoundRect,0.135000X0.185000X-0.135000X0.185000X0.135000X-0.185000X0.135000X-0.185000X-0.135000X0*%
%ADD23RoundRect,0.135000X-0.185000X0.135000X-0.185000X-0.135000X0.185000X-0.135000X0.185000X0.135000X0*%
%ADD24R,0.200000X1.100000*%
%ADD25R,0.500000X0.700000*%
%ADD26RoundRect,0.225000X-0.250000X0.225000X-0.250000X-0.225000X0.250000X-0.225000X0.250000X0.225000X0*%
%ADD27R,1.300000X0.600000*%
%ADD28R,1.574800X0.558800*%
G04 APERTURE END LIST*
D10*
X84120000Y-30050000D02*
G75*
G02*
X83560000Y-30050000I-280000J0D01*
G01*
X83560000Y-30050000D02*
G75*
G02*
X84120000Y-30050000I280000J0D01*
G01*
X84120000Y-31320000D02*
G75*
G02*
X83560000Y-31320000I-280000J0D01*
G01*
X83560000Y-31320000D02*
G75*
G02*
X84120000Y-31320000I280000J0D01*
G01*
X84120000Y-32590000D02*
G75*
G02*
X83560000Y-32590000I-280000J0D01*
G01*
X83560000Y-32590000D02*
G75*
G02*
X84120000Y-32590000I280000J0D01*
G01*
X84120000Y-35130000D02*
G75*
G02*
X83560000Y-35130000I-280000J0D01*
G01*
X83560000Y-35130000D02*
G75*
G02*
X84120000Y-35130000I280000J0D01*
G01*
X84120000Y-36400000D02*
G75*
G02*
X83560000Y-36400000I-280000J0D01*
G01*
X83560000Y-36400000D02*
G75*
G02*
X84120000Y-36400000I280000J0D01*
G01*
X84120000Y-37670000D02*
G75*
G02*
X83560000Y-37670000I-280000J0D01*
G01*
X83560000Y-37670000D02*
G75*
G02*
X84120000Y-37670000I280000J0D01*
G01*
D11*
X72060000Y-37378000D03*
X72060000Y-38242000D03*
D12*
X62630000Y-34000000D03*
X61610000Y-34000000D03*
D13*
X72460000Y-46045001D03*
X71460002Y-46045001D03*
D14*
X70160002Y-42170000D03*
X73760000Y-42170000D03*
D15*
X61860000Y-35780000D03*
X62880000Y-35780000D03*
D16*
X77280000Y-32740000D03*
X73380000Y-32740000D03*
X77280000Y-31470000D03*
X73380000Y-31470000D03*
X77280000Y-30200000D03*
X73380000Y-30200000D03*
X77280000Y-28930000D03*
X73380000Y-28930000D03*
X77280000Y-27660000D03*
X73380000Y-27660000D03*
D17*
X64960000Y-42270000D03*
X67500000Y-45190000D03*
D18*
X66600000Y-27660000D03*
X64700000Y-27660000D03*
X65650000Y-29760000D03*
D11*
X81310000Y-45552000D03*
X81310000Y-44688000D03*
D19*
X77750000Y-41210000D03*
X80670000Y-38670000D03*
D20*
X69995000Y-39260000D03*
X69995000Y-37460000D03*
X69045000Y-37460000D03*
X69045000Y-39260000D03*
D21*
X65780000Y-39260000D03*
X64180000Y-39260000D03*
D15*
X68170000Y-27080000D03*
X69190000Y-27080000D03*
D22*
X62650000Y-39600000D03*
X62650000Y-38580000D03*
D23*
X70380000Y-32040000D03*
X70380000Y-33060000D03*
D21*
X59920000Y-39000000D03*
X58320000Y-39000000D03*
D24*
X63890000Y-31630000D03*
D25*
X64240000Y-31630000D03*
X68490000Y-31630000D03*
D24*
X68840000Y-31630000D03*
X63890000Y-35130000D03*
D25*
X64240000Y-35130000D03*
X68490000Y-35130000D03*
D24*
X68840000Y-35130000D03*
D12*
X67200000Y-36710000D03*
X66180000Y-36710000D03*
D22*
X69920000Y-35430000D03*
X69920000Y-34410000D03*
D17*
X58840000Y-28610000D03*
X61380000Y-31530000D03*
X61530000Y-45210000D03*
X58990000Y-42290000D03*
D26*
X74950000Y-38045000D03*
X74950000Y-39595000D03*
D27*
X60360000Y-36900000D03*
X60360000Y-35000000D03*
X58260000Y-35950000D03*
D22*
X67150000Y-39710000D03*
X67150000Y-38690000D03*
D28*
X75915600Y-44410000D03*
X75915600Y-45360001D03*
X75915600Y-46310002D03*
X78100000Y-46310002D03*
X78100000Y-44410000D03*
D11*
X79900000Y-45940000D03*
X79900000Y-45076000D03*
M02*
