%TF.GenerationSoftware,KiCad,Pcbnew,8.0.4+dfsg-1*%
%TF.CreationDate,2025-01-09T10:04:30-05:00*%
%TF.ProjectId,tag,7461672e-6b69-4636-9164-5f7063625858,1*%
%TF.SameCoordinates,Original*%
%TF.FileFunction,Soldermask,Top*%
%TF.FilePolarity,Negative*%
%FSLAX46Y46*%
G04 Gerber Fmt 4.6, Leading zero omitted, Abs format (unit mm)*
G04 Created by KiCad (PCBNEW 8.0.4+dfsg-1) date 2025-01-09 10:04:30*
%MOMM*%
%LPD*%
G01*
G04 APERTURE LIST*
G04 Aperture macros list*
%AMRoundRect*
0 Rectangle with rounded corners*
0 $1 Rounding radius*
0 $2 $3 $4 $5 $6 $7 $8 $9 X,Y pos of 4 corners*
0 Add a 4 corners polygon primitive as box body*
4,1,4,$2,$3,$4,$5,$6,$7,$8,$9,$2,$3,0*
0 Add four circle primitives for the rounded corners*
1,1,$1+$1,$2,$3*
1,1,$1+$1,$4,$5*
1,1,$1+$1,$6,$7*
1,1,$1+$1,$8,$9*
0 Add four rect primitives between the rounded corners*
20,1,$1+$1,$2,$3,$4,$5,0*
20,1,$1+$1,$4,$5,$6,$7,0*
20,1,$1+$1,$6,$7,$8,$9,0*
20,1,$1+$1,$8,$9,$2,$3,0*%
G04 Aperture macros list end*
%ADD10C,1.101600*%
%ADD11RoundRect,0.102000X-0.300000X0.270000X-0.300000X-0.270000X0.300000X-0.270000X0.300000X0.270000X0*%
%ADD12RoundRect,0.160400X0.160400X0.210400X-0.160400X0.210400X-0.160400X-0.210400X0.160400X-0.210400X0*%
%ADD13RoundRect,0.050800X-0.330200X-0.774700X0.330200X-0.774700X0.330200X0.774700X-0.330200X0.774700X0*%
%ADD14RoundRect,0.050800X-0.647700X-0.952500X0.647700X-0.952500X0.647700X0.952500X-0.647700X0.952500X0*%
%ADD15RoundRect,0.160400X-0.160400X-0.210400X0.160400X-0.210400X0.160400X0.210400X-0.160400X0.210400X0*%
%ADD16RoundRect,0.050800X1.200000X0.370000X-1.200000X0.370000X-1.200000X-0.370000X1.200000X-0.370000X0*%
%ADD17RoundRect,0.102000X0.635000X1.715000X-0.635000X1.715000X-0.635000X-1.715000X0.635000X-1.715000X0*%
%ADD18C,1.165600*%
%ADD19RoundRect,0.070000X-0.300000X0.650000X-0.300000X-0.650000X0.300000X-0.650000X0.300000X0.650000X0*%
%ADD20RoundRect,0.102000X0.300000X-0.270000X0.300000X0.270000X-0.300000X0.270000X-0.300000X-0.270000X0*%
%ADD21RoundRect,0.102000X-1.715000X0.635000X-1.715000X-0.635000X1.715000X-0.635000X1.715000X0.635000X0*%
%ADD22RoundRect,0.102000X-0.300000X0.600000X-0.300000X-0.600000X0.300000X-0.600000X0.300000X0.600000X0*%
%ADD23RoundRect,0.102000X0.400000X0.400000X-0.400000X0.400000X-0.400000X-0.400000X0.400000X-0.400000X0*%
%ADD24RoundRect,0.160400X0.210400X-0.160400X0.210400X0.160400X-0.210400X0.160400X-0.210400X-0.160400X0*%
%ADD25RoundRect,0.160400X-0.210400X0.160400X-0.210400X-0.160400X0.210400X-0.160400X0.210400X0.160400X0*%
%ADD26RoundRect,0.050800X-0.100000X-0.550000X0.100000X-0.550000X0.100000X0.550000X-0.100000X0.550000X0*%
%ADD27RoundRect,0.050800X-0.250000X-0.350000X0.250000X-0.350000X0.250000X0.350000X-0.250000X0.350000X0*%
%ADD28RoundRect,0.102000X-0.635000X-1.715000X0.635000X-1.715000X0.635000X1.715000X-0.635000X1.715000X0*%
%ADD29RoundRect,0.250400X-0.275400X0.250400X-0.275400X-0.250400X0.275400X-0.250400X0.275400X0.250400X0*%
%ADD30RoundRect,0.070000X0.650000X0.300000X-0.650000X0.300000X-0.650000X-0.300000X0.650000X-0.300000X0*%
%ADD31RoundRect,0.050800X-0.787400X-0.279400X0.787400X-0.279400X0.787400X0.279400X-0.787400X0.279400X0*%
G04 APERTURE END LIST*
D10*
%TO.C,TP1*%
X75210000Y-36020000D03*
%TD*%
D11*
%TO.C,C4*%
X72060000Y-37378000D03*
X72060000Y-38242000D03*
%TD*%
D12*
%TO.C,R2*%
X62630000Y-34000000D03*
X61610000Y-34000000D03*
%TD*%
D13*
%TO.C,J1*%
X72460000Y-46045001D03*
X71460002Y-46045001D03*
D14*
X70160002Y-42170000D03*
X73760000Y-42170000D03*
%TD*%
D15*
%TO.C,R4*%
X61860000Y-35780000D03*
X62880000Y-35780000D03*
%TD*%
D16*
%TO.C,J3*%
X77280000Y-32740000D03*
X73380000Y-32740000D03*
X77280000Y-31470000D03*
X73380000Y-31470000D03*
X77280000Y-30200000D03*
X73380000Y-30200000D03*
X77280000Y-28930000D03*
X73380000Y-28930000D03*
X77280000Y-27660000D03*
X73380000Y-27660000D03*
%TD*%
D17*
%TO.C,J6*%
X64960000Y-42270000D03*
X67500000Y-45190000D03*
%TD*%
D18*
%TO.C,REF\u002A\u002A*%
X83840000Y-37670000D03*
X83840000Y-36400000D03*
X83840000Y-35130000D03*
X83840000Y-32590000D03*
X83840000Y-31320000D03*
X83840000Y-30050000D03*
%TD*%
D19*
%TO.C,Q1*%
X66600000Y-27660000D03*
X64700000Y-27660000D03*
X65650000Y-29760000D03*
%TD*%
D20*
%TO.C,C1*%
X81310000Y-45552000D03*
X81310000Y-44688000D03*
%TD*%
D21*
%TO.C,J4*%
X77750000Y-41210000D03*
X80670000Y-38670000D03*
%TD*%
D22*
%TO.C,D1*%
X69995000Y-39260000D03*
X69995000Y-37460000D03*
X69045000Y-37460000D03*
X69045000Y-39260000D03*
%TD*%
D23*
%TO.C,D2*%
X65780000Y-39260000D03*
X64180000Y-39260000D03*
%TD*%
D15*
%TO.C,R1*%
X68170000Y-27080000D03*
X69190000Y-27080000D03*
%TD*%
D24*
%TO.C,R8*%
X62650000Y-39600000D03*
X62650000Y-38580000D03*
%TD*%
D25*
%TO.C,R3*%
X70380000Y-32040000D03*
X70380000Y-33060000D03*
%TD*%
D23*
%TO.C,D3*%
X59920000Y-39000000D03*
X58320000Y-39000000D03*
%TD*%
D26*
%TO.C,S1*%
X63890000Y-31630000D03*
D27*
X64240000Y-31630000D03*
X68490000Y-31630000D03*
D26*
X68840000Y-31630000D03*
X63890000Y-35130000D03*
D27*
X64240000Y-35130000D03*
X68490000Y-35130000D03*
D26*
X68840000Y-35130000D03*
%TD*%
D10*
%TO.C,TP3*%
X68680000Y-29310000D03*
%TD*%
%TO.C,TP2*%
X72380000Y-39820000D03*
%TD*%
D12*
%TO.C,R5*%
X67200000Y-36710000D03*
X66180000Y-36710000D03*
%TD*%
D24*
%TO.C,R6*%
X69920000Y-35430000D03*
X69920000Y-34410000D03*
%TD*%
D17*
%TO.C,J5*%
X58840000Y-28610000D03*
X61380000Y-31530000D03*
%TD*%
D28*
%TO.C,J7*%
X61530000Y-45210000D03*
X58990000Y-42290000D03*
%TD*%
D29*
%TO.C,C3*%
X74950000Y-38045000D03*
X74950000Y-39595000D03*
%TD*%
D30*
%TO.C,Q2*%
X60360000Y-36900000D03*
X60360000Y-35000000D03*
X58260000Y-35950000D03*
%TD*%
D24*
%TO.C,R7*%
X67150000Y-39710000D03*
X67150000Y-38690000D03*
%TD*%
D31*
%TO.C,U2*%
X75915600Y-44410000D03*
X75915600Y-45360001D03*
X75915600Y-46310002D03*
X78100000Y-46310002D03*
X78100000Y-44410000D03*
%TD*%
D20*
%TO.C,C2*%
X79900000Y-45940000D03*
X79900000Y-45076000D03*
%TD*%
M02*
